<svg width="18" height="18" viewBox="0 0 18 18" fill="none" xmlns="http://www.w3.org/2000/svg">
<path fill-rule="evenodd" clip-rule="evenodd" d="M17.2071 1.70711C17.5976 1.31658 17.5976 0.683418 17.2071 0.292893C16.8166 -0.0976311 16.1834 -0.0976311 15.7929 0.292893L8.75 7.33579L1.70711 0.292893C1.31658 -0.0976311 0.683419 -0.0976311 0.292895 0.292893C-0.0976297 0.683417 -0.0976297 1.31658 0.292895 1.70711L7.33579 8.75L0.292893 15.7929C-0.097631 16.1834 -0.097631 16.8166 0.292893 17.2071C0.683418 17.5976 1.31658 17.5976 1.70711 17.2071L8.75 10.1642L15.7929 17.2071C16.1834 17.5976 16.8166 17.5976 17.2071 17.2071C17.5976 16.8166 17.5976 16.1834 17.2071 15.7929L10.1642 8.75L17.2071 1.70711Z" fill="#333333"/>
</svg>
